# MagicaVoxel @ Ephtracy

# group
o 

# material
mtllib CSR_fish_2.mtl
usemtl palette

# normals
vn -1 0 0
vn 1 0 0
vn 0 0 1
vn 0 0 -1
vn 0 -1 0
vn 0 1 0

# texcoords
vt 0.306641 0.5
vt 0.482422 0.5
vt 0.736328 0.5
vt 0.744141 0.5
vt 0.771484 0.5
vt 0.912109 0.5
vt 0.994141 0.5

# verts
v -0.8 0.2 0.1
v -0.8 0.2 0
v -0.8 0.5 0.1
v -0.8 0.5 0
v -0.7 0.2 0.2
v -0.7 0.2 0.1
v -0.7 0.2 0
v -0.7 0.2 -0.1
v -0.7 0.5 0.2
v -0.7 0.5 0.1
v -0.7 0.5 0
v -0.7 0.5 -0.1
v -0.7 0.6 0.1
v -0.7 0.6 0
v -0.6 0.1 0.1
v -0.6 0.1 0
v -0.6 0.2 0.1
v -0.6 0.2 0
v -0.6 0.5 0.2
v -0.6 0.5 0.1
v -0.6 0.5 0
v -0.6 0.5 -0.1
v -0.6 0.6 0.2
v -0.6 0.6 0.1
v -0.6 0.6 0
v -0.6 0.6 -0.1
v -0.6 0.7 0.1
v -0.6 0.7 0
v -0.5 0.1 0.2
v -0.5 0.1 0.1
v -0.5 0.1 0
v -0.5 0.1 -0.1
v -0.5 0.2 0.2
v -0.5 0.2 0.1
v -0.5 0.2 0
v -0.5 0.2 -0.1
v -0.5 0.6 0.2
v -0.5 0.6 0.1
v -0.5 0.6 0
v -0.5 0.6 -0.1
v -0.5 0.7 0.2
v -0.5 0.7 0.1
v -0.5 0.7 0
v -0.5 0.7 -0.1
v -0.5 0.8 0.1
v -0.5 0.8 0
v -0.4 0.4 0.3
v -0.4 0.4 0.2
v -0.4 0.4 -0.1
v -0.4 0.4 -0.2
v -0.4 0.6 0.3
v -0.4 0.6 0.2
v -0.4 0.6 -0.1
v -0.4 0.6 -0.2
v -0.4 0.7 0.3
v -0.4 0.7 0.2
v -0.4 0.7 0.1
v -0.4 0.7 0
v -0.4 0.7 -0.1
v -0.4 0.7 -0.2
v -0.4 0.8 0.2
v -0.4 0.8 0.1
v -0.4 0.8 0
v -0.4 0.8 -0.1
v -0.4 0.9 0.1
v -0.4 0.9 0
v -0.3 0 0.1
v -0.3 0 0
v -0.3 0.1 0.1
v -0.3 0.1 0
v -0.3 0.9 0.1
v -0.3 0.9 0
v -0.3 1 0.1
v -0.3 1 0
v -0.2 1 0.1
v -0.2 1 0
v -0.2 1.1 0.1
v -0.2 1.1 0
v 0.2 0.2 -0.1
v 0.2 0.2 -0.2
v 0.2 0.4 -0.1
v 0.2 0.4 -0.2
v 0.2 0.6 -0.1
v 0.2 0.6 -0.2
v 0.2 0.7 0
v 0.2 0.7 -0.1
v 0.2 1 0
v 0.2 1 -0.1
v 0.5 0.2 0
v 0.5 0.2 -0.1
v 0.5 0.3 0
v 0.5 0.3 -0.1
v 0.5 0.5 0
v 0.5 0.5 -0.1
v 0.5 0.6 0
v 0.5 0.6 -0.1
v 0.6 0.1 -0.1
v 0.6 0.1 -0.2
v 0.6 0.2 -0.1
v 0.6 0.2 -0.2
v 0.6 0.3 -0.1
v 0.6 0.3 -0.2
v 0.6 0.5 -0.1
v 0.6 0.5 -0.2
v 0.6 0.6 -0.1
v 0.6 0.6 -0.2
v 0.6 0.7 -0.1
v 0.6 0.7 -0.2
v -0.2 0.4 0.3
v -0.2 0.4 0.2
v -0.2 0.4 -0.1
v -0.2 0.4 -0.2
v -0.2 0.7 0.3
v -0.2 0.7 0.2
v -0.2 0.7 -0.1
v -0.2 0.7 -0.2
v 0 0.7 0.2
v 0 0.7 0.1
v 0 0.7 0
v 0 0.7 -0.1
v 0 0.8 0.2
v 0 0.8 0.1
v 0 0.8 0
v 0 0.8 -0.1
v 0.1 1 0.1
v 0.1 1 0
v 0.1 1.1 0.1
v 0.1 1.1 0
v 0.2 0 0.1
v 0.2 0 0
v 0.2 0.1 0.2
v 0.2 0.1 0.1
v 0.2 0.1 0
v 0.2 0.1 -0.1
v 0.2 0.2 0.1
v 0.2 0.2 0
v 0.2 0.2 -0.1
v 0.2 0.4 0.1
v 0.2 0.6 0.1
v 0.2 0.6 0
v 0.2 0.7 0.2
v 0.2 0.7 0.1
v 0.2 0.7 0
v 0.2 1 0.1
v 0.2 1 0
v 0.3 0.2 0.1
v 0.3 0.2 0
v 0.3 0.2 -0.1
v 0.3 0.2 -0.2
v 0.3 0.3 0.1
v 0.3 0.3 0
v 0.3 0.3 -0.1
v 0.3 0.3 -0.2
v 0.3 0.5 0.1
v 0.3 0.5 0
v 0.3 0.5 -0.1
v 0.3 0.5 -0.2
v 0.3 0.6 0.1
v 0.3 0.6 0
v 0.3 0.6 -0.1
v 0.3 0.6 -0.2
v 0.3 0.9 0
v 0.3 0.9 -0.1
v 0.3 1 0
v 0.3 1 -0.1
v 0.4 0.3 0.1
v 0.4 0.3 0
v 0.4 0.3 -0.1
v 0.4 0.3 -0.2
v 0.4 0.5 0.1
v 0.4 0.5 0
v 0.4 0.5 -0.1
v 0.4 0.5 -0.2
v 0.4 0.6 0
v 0.4 0.6 -0.1
v 0.4 0.8 0
v 0.4 0.8 -0.1
v 0.4 0.9 0
v 0.4 0.9 -0.1
v 0.5 0.6 0
v 0.5 0.6 -0.1
v 0.5 0.8 0
v 0.5 0.8 -0.1
v 0.6 0.2 0
v 0.6 0.2 -0.1
v 0.6 0.3 0
v 0.6 0.3 -0.1
v 0.6 0.5 0
v 0.6 0.5 -0.1
v 0.6 0.6 0
v 0.6 0.6 -0.1
v 0.8 0.1 -0.1
v 0.8 0.1 -0.2
v 0.8 0.2 -0.1
v 0.8 0.2 -0.2
v 0.8 0.3 -0.1
v 0.8 0.3 -0.2
v 0.8 0.5 -0.1
v 0.8 0.5 -0.2
v 0.8 0.6 -0.1
v 0.8 0.6 -0.2
v 0.8 0.7 -0.1
v 0.8 0.7 -0.2
v -0.4 0.4 0.3
v -0.4 0.6 0.3
v -0.4 0.7 0.3
v -0.3 0.4 0.3
v -0.3 0.6 0.3
v -0.2 0.4 0.3
v -0.2 0.7 0.3
v -0.7 0.2 0.2
v -0.7 0.5 0.2
v -0.6 0.5 0.2
v -0.6 0.6 0.2
v -0.5 0.1 0.2
v -0.5 0.2 0.2
v -0.5 0.6 0.2
v -0.5 0.7 0.2
v -0.4 0.4 0.2
v -0.4 0.6 0.2
v -0.4 0.7 0.2
v -0.4 0.8 0.2
v -0.3 0.4 0.2
v -0.2 0.4 0.2
v -0.2 0.7 0.2
v -0.1 0.4 0.2
v -0.1 0.8 0.2
v 0 0.4 0.2
v 0 0.5 0.2
v 0 0.7 0.2
v 0 0.8 0.2
v 0.1 0.5 0.2
v 0.1 0.7 0.2
v 0.2 0.1 0.2
v 0.2 0.7 0.2
v -0.8 0.2 0.1
v -0.8 0.5 0.1
v -0.7 0.2 0.1
v -0.7 0.5 0.1
v -0.7 0.6 0.1
v -0.6 0.1 0.1
v -0.6 0.2 0.1
v -0.6 0.5 0.1
v -0.6 0.6 0.1
v -0.6 0.7 0.1
v -0.5 0.1 0.1
v -0.5 0.2 0.1
v -0.5 0.6 0.1
v -0.5 0.7 0.1
v -0.5 0.8 0.1
v -0.4 0.7 0.1
v -0.4 0.8 0.1
v -0.4 0.9 0.1
v -0.3 0 0.1
v -0.3 0.1 0.1
v -0.3 0.8 0.1
v -0.3 0.9 0.1
v -0.3 1 0.1
v -0.2 0 0.1
v -0.2 0.1 0.1
v -0.2 0.8 0.1
v -0.2 1 0.1
v -0.2 1.1 0.1
v -0.1 0 0.1
v -0.1 0.1 0.1
v -0.1 0.8 0.1
v -0.1 1.1 0.1
v 0 0 0.1
v 0 0.1 0.1
v 0 0.7 0.1
v 0 0.8 0.1
v 0 1.1 0.1
v 0.1 0 0.1
v 0.1 0.1 0.1
v 0.1 0.7 0.1
v 0.1 1 0.1
v 0.1 1.1 0.1
v 0.2 0 0.1
v 0.2 0.1 0.1
v 0.2 0.2 0.1
v 0.2 0.4 0.1
v 0.2 0.6 0.1
v 0.2 0.7 0.1
v 0.2 1 0.1
v 0.3 0.2 0.1
v 0.3 0.3 0.1
v 0.3 0.4 0.1
v 0.3 0.5 0.1
v 0.3 0.6 0.1
v 0.4 0.3 0.1
v 0.4 0.5 0.1
v 0.2 0.6 0
v 0.2 0.7 0
v 0.2 1 0
v 0.3 0.5 0
v 0.3 0.6 0
v 0.3 0.9 0
v 0.3 1 0
v 0.4 0.3 0
v 0.4 0.5 0
v 0.4 0.6 0
v 0.4 0.8 0
v 0.4 0.9 0
v 0.5 0.2 0
v 0.5 0.3 0
v 0.5 0.5 0
v 0.5 0.6 0
v 0.5 0.8 0
v 0.6 0.2 0
v 0.6 0.3 0
v 0.6 0.5 0
v 0.6 0.6 0
v 0.6 0.1 -0.1
v 0.6 0.2 -0.1
v 0.6 0.3 -0.1
v 0.6 0.5 -0.1
v 0.6 0.6 -0.1
v 0.6 0.7 -0.1
v 0.8 0.1 -0.1
v 0.8 0.2 -0.1
v 0.8 0.3 -0.1
v 0.8 0.5 -0.1
v 0.8 0.6 -0.1
v 0.8 0.7 -0.1
v -0.8 0.2 0
v -0.8 0.5 0
v -0.7 0.2 0
v -0.7 0.5 0
v -0.7 0.6 0
v -0.6 0.1 0
v -0.6 0.2 0
v -0.6 0.5 0
v -0.6 0.6 0
v -0.6 0.7 0
v -0.5 0.1 0
v -0.5 0.2 0
v -0.5 0.6 0
v -0.5 0.7 0
v -0.5 0.8 0
v -0.4 0.7 0
v -0.4 0.8 0
v -0.4 0.9 0
v -0.3 0 0
v -0.3 0.1 0
v -0.3 0.8 0
v -0.3 0.9 0
v -0.3 1 0
v -0.2 0 0
v -0.2 0.1 0
v -0.2 0.8 0
v -0.2 1 0
v -0.2 1.1 0
v -0.1 0 0
v -0.1 0.1 0
v -0.1 0.8 0
v -0.1 1.1 0
v 0 0 0
v 0 0.1 0
v 0 0.7 0
v 0 0.8 0
v 0 1.1 0
v 0.1 0 0
v 0.1 0.1 0
v 0.1 0.7 0
v 0.1 1 0
v 0.1 1.1 0
v 0.2 0 0
v 0.2 0.1 0
v 0.2 0.7 0
v 0.2 1 0
v -0.7 0.2 -0.1
v -0.7 0.5 -0.1
v -0.6 0.5 -0.1
v -0.6 0.6 -0.1
v -0.5 0.1 -0.1
v -0.5 0.2 -0.1
v -0.5 0.6 -0.1
v -0.5 0.7 -0.1
v -0.4 0.4 -0.1
v -0.4 0.6 -0.1
v -0.4 0.7 -0.1
v -0.4 0.8 -0.1
v -0.3 0.4 -0.1
v -0.2 0.4 -0.1
v -0.2 0.7 -0.1
v -0.1 0.4 -0.1
v -0.1 0.8 -0.1
v 0 0.4 -0.1
v 0 0.5 -0.1
v 0 0.7 -0.1
v 0 0.8 -0.1
v 0.1 0.5 -0.1
v 0.1 0.7 -0.1
v 0.2 0.1 -0.1
v 0.2 0.2 -0.1
v 0.2 0.4 -0.1
v 0.2 0.6 -0.1
v 0.2 0.7 -0.1
v 0.2 1 -0.1
v 0.3 0.5 -0.1
v 0.3 0.6 -0.1
v 0.3 0.9 -0.1
v 0.3 1 -0.1
v 0.4 0.3 -0.1
v 0.4 0.5 -0.1
v 0.4 0.6 -0.1
v 0.4 0.8 -0.1
v 0.4 0.9 -0.1
v 0.5 0.2 -0.1
v 0.5 0.3 -0.1
v 0.5 0.5 -0.1
v 0.5 0.6 -0.1
v 0.5 0.8 -0.1
v 0.6 0.2 -0.1
v 0.6 0.3 -0.1
v 0.6 0.5 -0.1
v 0.6 0.6 -0.1
v -0.4 0.4 -0.2
v -0.4 0.6 -0.2
v -0.4 0.7 -0.2
v -0.3 0.4 -0.2
v -0.3 0.6 -0.2
v -0.2 0.4 -0.2
v -0.2 0.7 -0.2
v 0.2 0.2 -0.2
v 0.2 0.4 -0.2
v 0.2 0.6 -0.2
v 0.3 0.2 -0.2
v 0.3 0.3 -0.2
v 0.3 0.4 -0.2
v 0.3 0.5 -0.2
v 0.3 0.6 -0.2
v 0.4 0.3 -0.2
v 0.4 0.5 -0.2
v 0.6 0.1 -0.2
v 0.6 0.2 -0.2
v 0.6 0.3 -0.2
v 0.6 0.5 -0.2
v 0.6 0.6 -0.2
v 0.6 0.7 -0.2
v 0.8 0.1 -0.2
v 0.8 0.2 -0.2
v 0.8 0.3 -0.2
v 0.8 0.5 -0.2
v 0.8 0.6 -0.2
v 0.8 0.7 -0.2
v -0.3 0 0.1
v -0.2 0 0.1
v -0.1 0 0.1
v 0 0 0.1
v 0.1 0 0.1
v 0.2 0 0.1
v -0.3 0 0
v -0.2 0 0
v -0.1 0 0
v 0 0 0
v 0.1 0 0
v 0.2 0 0
v -0.5 0.1 0.2
v 0.2 0.1 0.2
v -0.6 0.1 0.1
v -0.5 0.1 0.1
v -0.3 0.1 0.1
v -0.2 0.1 0.1
v -0.1 0.1 0.1
v 0 0.1 0.1
v 0.1 0.1 0.1
v 0.2 0.1 0.1
v -0.6 0.1 0
v -0.5 0.1 0
v -0.3 0.1 0
v -0.2 0.1 0
v -0.1 0.1 0
v 0 0.1 0
v 0.1 0.1 0
v 0.2 0.1 0
v -0.5 0.1 -0.1
v 0.2 0.1 -0.1
v 0.6 0.1 -0.1
v 0.8 0.1 -0.1
v 0.6 0.1 -0.2
v 0.8 0.1 -0.2
v -0.7 0.2 0.2
v -0.5 0.2 0.2
v -0.8 0.2 0.1
v -0.7 0.2 0.1
v -0.6 0.2 0.1
v -0.5 0.2 0.1
v 0.2 0.2 0.1
v 0.3 0.2 0.1
v -0.8 0.2 0
v -0.7 0.2 0
v -0.6 0.2 0
v -0.5 0.2 0
v 0.2 0.2 0
v 0.3 0.2 0
v 0.5 0.2 0
v 0.6 0.2 0
v -0.7 0.2 -0.1
v -0.5 0.2 -0.1
v 0.2 0.2 -0.1
v 0.3 0.2 -0.1
v 0.5 0.2 -0.1
v 0.6 0.2 -0.1
v 0.2 0.2 -0.2
v 0.3 0.2 -0.2
v 0.3 0.3 0.1
v 0.4 0.3 0.1
v 0.3 0.3 0
v 0.4 0.3 0
v 0.5 0.3 0
v 0.3 0.3 -0.1
v 0.4 0.3 -0.1
v 0.5 0.3 -0.1
v 0.3 0.3 -0.2
v 0.4 0.3 -0.2
v -0.4 0.4 0.3
v -0.3 0.4 0.3
v -0.2 0.4 0.3
v -0.4 0.4 0.2
v -0.3 0.4 0.2
v -0.2 0.4 0.2
v -0.4 0.4 -0.1
v -0.3 0.4 -0.1
v -0.2 0.4 -0.1
v -0.4 0.4 -0.2
v -0.3 0.4 -0.2
v -0.2 0.4 -0.2
v 0.4 0.6 0
v 0.5 0.6 0
v 0.4 0.6 -0.1
v 0.5 0.6 -0.1
v -0.7 0.5 0.2
v -0.6 0.5 0.2
v -0.8 0.5 0.1
v -0.7 0.5 0.1
v -0.6 0.5 0.1
v 0.3 0.5 0.1
v 0.4 0.5 0.1
v -0.8 0.5 0
v -0.7 0.5 0
v -0.6 0.5 0
v 0.3 0.5 0
v 0.4 0.5 0
v 0.5 0.5 0
v -0.7 0.5 -0.1
v -0.6 0.5 -0.1
v 0.3 0.5 -0.1
v 0.4 0.5 -0.1
v 0.5 0.5 -0.1
v 0.3 0.5 -0.2
v 0.4 0.5 -0.2
v -0.6 0.6 0.2
v -0.5 0.6 0.2
v -0.7 0.6 0.1
v -0.6 0.6 0.1
v -0.5 0.6 0.1
v 0.2 0.6 0.1
v 0.3 0.6 0.1
v -0.7 0.6 0
v -0.6 0.6 0
v -0.5 0.6 0
v 0.2 0.6 0
v 0.3 0.6 0
v 0.5 0.6 0
v 0.6 0.6 0
v -0.6 0.6 -0.1
v -0.5 0.6 -0.1
v 0.2 0.6 -0.1
v 0.3 0.6 -0.1
v 0.5 0.6 -0.1
v 0.6 0.6 -0.1
v 0.2 0.6 -0.2
v 0.3 0.6 -0.2
v -0.4 0.7 0.3
v -0.2 0.7 0.3
v -0.5 0.7 0.2
v -0.4 0.7 0.2
v -0.2 0.7 0.2
v 0 0.7 0.2
v 0.1 0.7 0.2
v 0.2 0.7 0.2
v -0.6 0.7 0.1
v -0.5 0.7 0.1
v -0.4 0.7 0.1
v 0 0.7 0.1
v 0.1 0.7 0.1
v 0.2 0.7 0.1
v -0.6 0.7 0
v -0.5 0.7 0
v -0.4 0.7 0
v 0 0.7 0
v 0.1 0.7 0
v 0.2 0.7 0
v -0.5 0.7 -0.1
v -0.4 0.7 -0.1
v -0.2 0.7 -0.1
v 0 0.7 -0.1
v 0.1 0.7 -0.1
v 0.2 0.7 -0.1
v 0.6 0.7 -0.1
v 0.8 0.7 -0.1
v -0.4 0.7 -0.2
v -0.2 0.7 -0.2
v 0.6 0.7 -0.2
v 0.8 0.7 -0.2
v -0.4 0.8 0.2
v -0.1 0.8 0.2
v 0 0.8 0.2
v -0.5 0.8 0.1
v -0.4 0.8 0.1
v -0.3 0.8 0.1
v -0.2 0.8 0.1
v -0.1 0.8 0.1
v 0 0.8 0.1
v -0.5 0.8 0
v -0.4 0.8 0
v -0.3 0.8 0
v -0.2 0.8 0
v -0.1 0.8 0
v 0 0.8 0
v 0.4 0.8 0
v 0.5 0.8 0
v -0.4 0.8 -0.1
v -0.1 0.8 -0.1
v 0 0.8 -0.1
v 0.4 0.8 -0.1
v 0.5 0.8 -0.1
v -0.4 0.9 0.1
v -0.3 0.9 0.1
v -0.4 0.9 0
v -0.3 0.9 0
v 0.3 0.9 0
v 0.4 0.9 0
v 0.3 0.9 -0.1
v 0.4 0.9 -0.1
v -0.3 1 0.1
v -0.2 1 0.1
v 0.1 1 0.1
v 0.2 1 0.1
v -0.3 1 0
v -0.2 1 0
v 0.1 1 0
v 0.2 1 0
v 0.3 1 0
v 0.2 1 -0.1
v 0.3 1 -0.1
v -0.2 1.1 0.1
v -0.1 1.1 0.1
v 0 1.1 0.1
v 0.1 1.1 0.1
v -0.2 1.1 0
v -0.1 1.1 0
v 0 1.1 0
v 0.1 1.1 0

# faces
f 3/3/1 2/3/1 1/3/1
f 4/3/1 2/3/1 3/3/1
f 9/2/1 6/2/1 5/2/1
f 10/2/1 6/2/1 9/2/1
f 11/2/1 8/2/1 7/2/1
f 12/2/1 8/2/1 11/2/1
f 13/3/1 11/3/1 10/3/1
f 14/3/1 11/3/1 13/3/1
f 17/3/1 16/3/1 15/3/1
f 18/3/1 16/3/1 17/3/1
f 23/2/1 20/2/1 19/2/1
f 24/2/1 20/2/1 23/2/1
f 25/2/1 22/2/1 21/2/1
f 26/2/1 22/2/1 25/2/1
f 27/3/1 25/3/1 24/3/1
f 28/3/1 25/3/1 27/3/1
f 33/2/1 30/2/1 29/2/1
f 34/2/1 30/2/1 33/2/1
f 35/2/1 32/2/1 31/2/1
f 36/2/1 32/2/1 35/2/1
f 41/2/1 38/2/1 37/2/1
f 42/2/1 38/2/1 41/2/1
f 43/2/1 40/2/1 39/2/1
f 44/2/1 40/2/1 43/2/1
f 45/3/1 43/3/1 42/3/1
f 46/3/1 43/3/1 45/3/1
f 51/7/1 48/7/1 47/7/1
f 52/7/1 48/7/1 51/7/1
f 53/7/1 50/7/1 49/7/1
f 54/7/1 50/7/1 53/7/1
f 55/6/1 52/6/1 51/6/1
f 56/6/1 52/6/1 55/6/1
f 59/6/1 54/6/1 53/6/1
f 60/6/1 54/6/1 59/6/1
f 61/2/1 57/2/1 56/2/1
f 62/2/1 57/2/1 61/2/1
f 63/2/1 59/2/1 58/2/1
f 64/2/1 59/2/1 63/2/1
f 65/4/1 63/4/1 62/4/1
f 66/4/1 63/4/1 65/4/1
f 69/4/1 68/4/1 67/4/1
f 70/4/1 68/4/1 69/4/1
f 73/3/1 72/3/1 71/3/1
f 74/3/1 72/3/1 73/3/1
f 77/4/1 76/4/1 75/4/1
f 78/4/1 76/4/1 77/4/1
f 81/2/1 80/2/1 79/2/1
f 82/2/1 80/2/1 81/2/1
f 83/4/1 82/4/1 81/4/1
f 84/4/1 82/4/1 83/4/1
f 87/4/1 86/4/1 85/4/1
f 88/4/1 86/4/1 87/4/1
f 91/4/1 90/4/1 89/4/1
f 92/4/1 90/4/1 91/4/1
f 95/4/1 94/4/1 93/4/1
f 96/4/1 94/4/1 95/4/1
f 99/3/1 98/3/1 97/3/1
f 100/3/1 98/3/1 99/3/1
f 101/4/1 100/4/1 99/4/1
f 102/4/1 100/4/1 101/4/1
f 103/3/1 102/3/1 101/3/1
f 104/3/1 102/3/1 103/3/1
f 105/4/1 104/4/1 103/4/1
f 106/4/1 104/4/1 105/4/1
f 107/3/1 106/3/1 105/3/1
f 108/3/1 106/3/1 107/3/1
f 109/6/2 110/6/2 113/6/2
f 113/6/2 110/6/2 114/6/2
f 111/6/2 112/6/2 115/6/2
f 115/6/2 112/6/2 116/6/2
f 117/4/2 118/4/2 121/4/2
f 121/4/2 118/4/2 122/4/2
f 119/4/2 120/4/2 123/4/2
f 123/4/2 120/4/2 124/4/2
f 125/4/2 126/4/2 127/4/2
f 127/4/2 126/4/2 128/4/2
f 129/4/2 130/4/2 132/4/2
f 132/4/2 130/4/2 133/4/2
f 131/2/2 132/2/2 135/2/2
f 132/4/2 133/4/2 135/4/2
f 133/2/2 134/2/2 136/2/2
f 135/4/2 133/4/2 136/4/2
f 136/2/2 134/2/2 137/2/2
f 131/2/2 135/2/2 138/2/2
f 131/2/2 138/2/2 139/2/2
f 131/2/2 139/2/2 141/2/2
f 139/2/2 140/2/2 141/2/2
f 141/2/2 140/2/2 142/2/2
f 142/2/2 140/2/2 143/2/2
f 142/3/2 143/3/2 144/3/2
f 144/3/2 143/3/2 145/3/2
f 146/2/2 147/2/2 150/2/2
f 147/3/2 148/3/2 151/3/2
f 150/2/2 147/2/2 151/2/2
f 148/2/2 149/2/2 152/2/2
f 151/3/2 148/3/2 152/3/2
f 152/2/2 149/2/2 153/2/2
f 154/4/2 155/4/2 158/4/2
f 158/4/2 155/4/2 159/4/2
f 156/4/2 157/4/2 160/4/2
f 160/4/2 157/4/2 161/4/2
f 162/4/2 163/4/2 164/4/2
f 164/4/2 163/4/2 165/4/2
f 166/2/2 167/2/2 170/2/2
f 170/2/2 167/2/2 171/2/2
f 168/2/2 169/2/2 172/2/2
f 172/2/2 169/2/2 173/2/2
f 171/3/2 172/3/2 174/3/2
f 174/3/2 172/3/2 175/3/2
f 176/3/2 177/3/2 178/3/2
f 178/3/2 177/3/2 179/3/2
f 180/4/2 181/4/2 182/4/2
f 182/4/2 181/4/2 183/4/2
f 184/4/2 185/4/2 186/4/2
f 186/4/2 185/4/2 187/4/2
f 186/3/2 187/3/2 188/3/2
f 188/3/2 187/3/2 189/3/2
f 188/4/2 189/4/2 190/4/2
f 190/4/2 189/4/2 191/4/2
f 192/3/2 193/3/2 194/3/2
f 194/3/2 193/3/2 195/3/2
f 194/4/2 195/4/2 196/4/2
f 196/4/2 195/4/2 197/4/2
f 196/3/2 197/3/2 198/3/2
f 198/3/2 197/3/2 199/3/2
f 198/4/2 199/4/2 200/4/2
f 200/4/2 199/4/2 201/4/2
f 200/3/2 201/3/2 202/3/2
f 202/3/2 201/3/2 203/3/2
f 207/7/3 205/7/3 204/7/3
f 208/6/3 206/6/3 205/6/3
f 208/7/3 205/7/3 207/7/3
f 209/6/3 208/6/3 207/6/3
f 210/6/3 206/6/3 208/6/3
f 210/6/3 208/6/3 209/6/3
f 213/2/3 212/2/3 211/2/3
f 216/2/3 213/2/3 211/2/3
f 216/2/3 214/2/3 213/2/3
f 217/2/3 214/2/3 216/2/3
f 219/2/3 216/2/3 215/2/3
f 219/2/3 218/2/3 217/2/3
f 219/2/3 217/2/3 216/2/3
f 220/2/3 218/2/3 219/2/3
f 221/2/3 218/2/3 220/2/3
f 223/2/3 219/2/3 215/2/3
f 224/2/3 223/2/3 215/2/3
f 225/2/3 222/2/3 221/2/3
f 226/2/3 224/2/3 215/2/3
f 226/2/3 225/2/3 224/2/3
f 227/2/3 222/2/3 225/2/3
f 227/2/3 225/2/3 226/2/3
f 228/2/3 226/2/3 215/2/3
f 228/4/3 227/4/3 226/4/3
f 229/4/3 227/4/3 228/4/3
f 230/4/3 227/4/3 229/4/3
f 231/4/3 227/4/3 230/4/3
f 232/2/3 229/2/3 228/2/3
f 232/4/3 230/4/3 229/4/3
f 233/4/3 230/4/3 232/4/3
f 234/2/3 228/2/3 215/2/3
f 234/2/3 232/2/3 228/2/3
f 234/2/3 233/2/3 232/2/3
f 235/2/3 233/2/3 234/2/3
f 238/3/3 237/3/3 236/3/3
f 239/3/3 237/3/3 238/3/3
f 243/3/3 240/3/3 239/3/3
f 244/3/3 240/3/3 243/3/3
f 246/3/3 242/3/3 241/3/3
f 247/3/3 242/3/3 246/3/3
f 248/3/3 245/3/3 244/3/3
f 249/3/3 245/3/3 248/3/3
f 251/3/3 250/3/3 249/3/3
f 252/3/3 250/3/3 251/3/3
f 256/4/3 253/4/3 252/4/3
f 257/4/3 253/4/3 256/4/3
f 259/4/3 255/4/3 254/4/3
f 260/4/3 255/4/3 259/4/3
f 261/3/3 258/3/3 257/3/3
f 261/3/3 257/3/3 256/3/3
f 262/3/3 258/3/3 261/3/3
f 264/3/3 260/3/3 259/3/3
f 265/3/3 260/3/3 264/3/3
f 266/4/3 263/4/3 262/4/3
f 266/4/3 262/4/3 261/4/3
f 267/4/3 263/4/3 266/4/3
f 268/4/3 265/4/3 264/4/3
f 269/4/3 265/4/3 268/4/3
f 271/3/3 267/3/3 266/3/3
f 272/3/3 267/3/3 271/3/3
f 273/3/3 269/3/3 268/3/3
f 274/3/3 269/3/3 273/3/3
f 275/4/3 271/4/3 270/4/3
f 275/4/3 272/4/3 271/4/3
f 276/4/3 272/4/3 275/4/3
f 277/4/3 272/4/3 276/4/3
f 278/4/3 274/4/3 273/4/3
f 279/4/3 274/4/3 278/4/3
f 283/3/3 276/3/3 275/3/3
f 284/3/3 276/3/3 283/3/3
f 285/2/3 281/2/3 280/2/3
f 286/2/3 281/2/3 285/2/3
f 287/4/3 282/4/3 281/4/3
f 287/2/3 281/2/3 286/2/3
f 288/4/3 282/4/3 287/4/3
f 289/4/3 282/4/3 288/4/3
f 290/2/3 287/2/3 286/2/3
f 290/2/3 288/2/3 287/2/3
f 291/2/3 288/2/3 290/2/3
f 296/4/3 293/4/3 292/4/3
f 296/4/3 294/4/3 293/4/3
f 297/4/3 294/4/3 296/4/3
f 298/4/3 294/4/3 297/4/3
f 300/3/3 296/3/3 295/3/3
f 300/3/3 297/3/3 296/3/3
f 301/3/3 297/3/3 300/3/3
f 302/3/3 297/3/3 301/3/3
f 303/3/3 297/3/3 302/3/3
f 305/3/3 300/3/3 299/3/3
f 306/3/3 300/3/3 305/3/3
f 307/4/3 302/4/3 301/4/3
f 308/4/3 302/4/3 307/4/3
f 309/4/3 305/4/3 304/4/3
f 310/3/3 306/3/3 305/3/3
f 310/4/3 305/4/3 309/4/3
f 311/4/3 307/4/3 306/4/3
f 311/3/3 306/3/3 310/3/3
f 312/4/3 307/4/3 311/4/3
f 319/3/3 314/3/3 313/3/3
f 320/4/3 315/4/3 314/4/3
f 320/3/3 314/3/3 319/3/3
f 321/3/3 316/3/3 315/3/3
f 321/4/3 315/4/3 320/4/3
f 322/4/3 317/4/3 316/4/3
f 322/3/3 316/3/3 321/3/3
f 323/3/3 318/3/3 317/3/3
f 323/4/3 317/4/3 322/4/3
f 324/3/3 318/3/3 323/3/3
f 325/3/4 326/3/4 327/3/4
f 327/3/4 326/3/4 328/3/4
f 328/3/4 329/3/4 332/3/4
f 332/3/4 329/3/4 333/3/4
f 330/3/4 331/3/4 335/3/4
f 335/3/4 331/3/4 336/3/4
f 333/3/4 334/3/4 337/3/4
f 337/3/4 334/3/4 338/3/4
f 338/3/4 339/3/4 340/3/4
f 340/3/4 339/3/4 341/3/4
f 341/4/4 342/4/4 345/4/4
f 345/4/4 342/4/4 346/4/4
f 343/4/4 344/4/4 348/4/4
f 348/4/4 344/4/4 349/4/4
f 346/3/4 347/3/4 350/3/4
f 345/3/4 346/3/4 350/3/4
f 350/3/4 347/3/4 351/3/4
f 348/3/4 349/3/4 353/3/4
f 353/3/4 349/3/4 354/3/4
f 351/4/4 352/4/4 355/4/4
f 350/4/4 351/4/4 355/4/4
f 355/4/4 352/4/4 356/4/4
f 353/4/4 354/4/4 357/4/4
f 357/4/4 354/4/4 358/4/4
f 355/3/4 356/3/4 360/3/4
f 360/3/4 356/3/4 361/3/4
f 357/3/4 358/3/4 362/3/4
f 362/3/4 358/3/4 363/3/4
f 359/4/4 360/4/4 364/4/4
f 360/4/4 361/4/4 364/4/4
f 364/4/4 361/4/4 365/4/4
f 365/4/4 361/4/4 366/4/4
f 362/4/4 363/4/4 367/4/4
f 367/4/4 363/4/4 368/4/4
f 364/3/4 365/3/4 369/3/4
f 369/3/4 365/3/4 370/3/4
f 371/2/4 372/2/4 373/2/4
f 371/2/4 373/2/4 376/2/4
f 373/2/4 374/2/4 376/2/4
f 376/2/4 374/2/4 377/2/4
f 375/2/4 376/2/4 379/2/4
f 377/2/4 378/2/4 379/2/4
f 376/2/4 377/2/4 379/2/4
f 379/2/4 378/2/4 380/2/4
f 380/2/4 378/2/4 381/2/4
f 375/2/4 379/2/4 383/2/4
f 375/2/4 383/2/4 384/2/4
f 381/2/4 382/2/4 385/2/4
f 375/2/4 384/2/4 386/2/4
f 384/2/4 385/2/4 386/2/4
f 385/2/4 382/2/4 387/2/4
f 386/2/4 385/2/4 387/2/4
f 375/2/4 386/2/4 388/2/4
f 386/4/4 387/4/4 388/4/4
f 388/4/4 387/4/4 389/4/4
f 389/4/4 387/4/4 390/4/4
f 390/4/4 387/4/4 391/4/4
f 388/2/4 389/2/4 392/2/4
f 389/4/4 390/4/4 392/4/4
f 392/4/4 390/4/4 393/4/4
f 375/2/4 388/2/4 394/2/4
f 388/2/4 392/2/4 394/2/4
f 392/2/4 393/2/4 394/2/4
f 394/2/4 393/2/4 395/2/4
f 395/2/4 393/2/4 396/2/4
f 396/2/4 393/2/4 397/2/4
f 397/2/4 393/2/4 398/2/4
f 397/4/4 398/4/4 401/4/4
f 398/4/4 399/4/4 401/4/4
f 401/4/4 399/4/4 402/4/4
f 402/4/4 399/4/4 403/4/4
f 400/3/4 401/3/4 405/3/4
f 401/3/4 402/3/4 405/3/4
f 405/3/4 402/3/4 406/3/4
f 406/3/4 402/3/4 407/3/4
f 407/3/4 402/3/4 408/3/4
f 404/3/4 405/3/4 410/3/4
f 410/3/4 405/3/4 411/3/4
f 406/4/4 407/4/4 412/4/4
f 412/4/4 407/4/4 413/4/4
f 409/4/4 410/4/4 414/4/4
f 410/3/4 411/3/4 415/3/4
f 414/4/4 410/4/4 415/4/4
f 411/4/4 412/4/4 416/4/4
f 415/3/4 411/3/4 416/3/4
f 416/4/4 412/4/4 417/4/4
f 418/7/4 419/7/4 421/7/4
f 419/6/4 420/6/4 422/6/4
f 421/7/4 419/7/4 422/7/4
f 421/6/4 422/6/4 423/6/4
f 422/6/4 420/6/4 424/6/4
f 423/6/4 422/6/4 424/6/4
f 425/2/4 426/2/4 428/2/4
f 428/2/4 426/2/4 429/2/4
f 426/4/4 427/4/4 430/4/4
f 429/2/4 426/2/4 430/2/4
f 430/4/4 427/4/4 431/4/4
f 431/4/4 427/4/4 432/4/4
f 429/2/4 430/2/4 433/2/4
f 430/2/4 431/2/4 433/2/4
f 433/2/4 431/2/4 434/2/4
f 435/3/4 436/3/4 441/3/4
f 436/4/4 437/4/4 442/4/4
f 441/3/4 436/3/4 442/3/4
f 437/3/4 438/3/4 443/3/4
f 442/4/4 437/4/4 443/4/4
f 438/4/4 439/4/4 444/4/4
f 443/3/4 438/3/4 444/3/4
f 439/3/4 440/3/4 445/3/4
f 444/4/4 439/4/4 445/4/4
f 445/3/4 440/3/4 446/3/4
f 453/4/5 448/4/5 447/4/5
f 454/3/5 449/3/5 448/3/5
f 454/4/5 448/4/5 453/4/5
f 455/4/5 450/4/5 449/4/5
f 455/3/5 449/3/5 454/3/5
f 456/3/5 451/3/5 450/3/5
f 456/4/5 450/4/5 455/4/5
f 457/4/5 452/4/5 451/4/5
f 457/3/5 451/3/5 456/3/5
f 458/4/5 452/4/5 457/4/5
f 462/2/5 460/2/5 459/2/5
f 463/2/5 460/2/5 462/2/5
f 464/2/5 460/2/5 463/2/5
f 465/2/5 460/2/5 464/2/5
f 466/2/5 460/2/5 465/2/5
f 467/2/5 460/2/5 466/2/5
f 468/2/5 460/2/5 467/2/5
f 469/3/5 462/3/5 461/3/5
f 470/5/5 463/5/5 462/5/5
f 470/3/5 462/3/5 469/3/5
f 471/5/5 463/5/5 470/5/5
f 477/2/5 476/2/5 475/2/5
f 477/2/5 475/2/5 474/2/5
f 477/2/5 474/2/5 473/2/5
f 477/2/5 473/2/5 472/2/5
f 477/2/5 472/2/5 471/2/5
f 477/2/5 471/2/5 470/2/5
f 478/2/5 476/2/5 477/2/5
f 481/3/5 480/3/5 479/3/5
f 482/3/5 480/3/5 481/3/5
f 486/2/5 484/2/5 483/2/5
f 487/2/5 484/2/5 486/2/5
f 488/2/5 484/2/5 487/2/5
f 491/3/5 486/3/5 485/3/5
f 492/5/5 487/5/5 486/5/5
f 492/3/5 486/3/5 491/3/5
f 493/5/5 487/5/5 492/5/5
f 495/2/5 490/2/5 489/2/5
f 496/2/5 490/2/5 495/2/5
f 499/2/5 494/2/5 493/2/5
f 499/2/5 493/2/5 492/2/5
f 500/2/5 494/2/5 499/2/5
f 501/3/5 496/3/5 495/3/5
f 502/3/5 496/3/5 501/3/5
f 503/4/5 498/4/5 497/4/5
f 504/4/5 498/4/5 503/4/5
f 505/2/5 502/2/5 501/2/5
f 506/2/5 502/2/5 505/2/5
f 509/2/5 508/2/5 507/2/5
f 510/2/5 508/2/5 509/2/5
f 512/3/5 510/3/5 509/3/5
f 512/3/5 511/3/5 510/3/5
f 513/3/5 511/3/5 512/3/5
f 514/3/5 511/3/5 513/3/5
f 515/2/5 513/2/5 512/2/5
f 516/2/5 513/2/5 515/2/5
f 520/7/5 518/7/5 517/7/5
f 521/6/5 519/6/5 518/6/5
f 521/7/5 518/7/5 520/7/5
f 522/6/5 519/6/5 521/6/5
f 526/7/5 524/7/5 523/7/5
f 527/6/5 525/6/5 524/6/5
f 527/7/5 524/7/5 526/7/5
f 528/6/5 525/6/5 527/6/5
f 531/4/5 530/4/5 529/4/5
f 532/4/5 530/4/5 531/4/5
f 533/2/6 534/2/6 536/2/6
f 536/2/6 534/2/6 537/2/6
f 535/3/6 536/3/6 540/3/6
f 540/3/6 536/3/6 541/3/6
f 538/2/6 539/2/6 543/2/6
f 543/2/6 539/2/6 544/2/6
f 541/2/6 542/2/6 546/2/6
f 546/2/6 542/2/6 547/2/6
f 544/3/6 545/3/6 549/3/6
f 549/3/6 545/3/6 550/3/6
f 548/2/6 549/2/6 551/2/6
f 551/2/6 549/2/6 552/2/6
f 553/2/6 554/2/6 556/2/6
f 556/2/6 554/2/6 557/2/6
f 555/3/6 556/3/6 560/3/6
f 560/3/6 556/3/6 561/3/6
f 558/4/6 559/4/6 563/4/6
f 563/4/6 559/4/6 564/4/6
f 561/2/6 562/2/6 567/2/6
f 567/2/6 562/2/6 568/2/6
f 565/4/6 566/4/6 571/4/6
f 571/4/6 566/4/6 572/4/6
f 569/4/6 570/4/6 573/4/6
f 573/4/6 570/4/6 574/4/6
f 575/6/6 576/6/6 578/6/6
f 578/6/6 576/6/6 579/6/6
f 577/2/6 578/2/6 584/2/6
f 584/2/6 578/2/6 585/2/6
f 580/4/6 581/4/6 586/4/6
f 581/2/6 582/2/6 587/2/6
f 586/4/6 581/4/6 587/4/6
f 587/2/6 582/2/6 588/2/6
f 583/3/6 584/3/6 589/3/6
f 589/3/6 584/3/6 590/3/6
f 590/2/6 591/2/6 595/2/6
f 595/2/6 591/2/6 596/2/6
f 592/4/6 593/4/6 598/4/6
f 593/2/6 594/2/6 599/2/6
f 598/4/6 593/4/6 599/4/6
f 599/2/6 594/2/6 600/2/6
f 596/6/6 597/6/6 603/6/6
f 603/6/6 597/6/6 604/6/6
f 601/3/6 602/3/6 605/3/6
f 605/3/6 602/3/6 606/3/6
f 607/2/6 608/2/6 611/2/6
f 611/2/6 608/2/6 612/2/6
f 612/2/6 608/2/6 613/2/6
f 608/4/6 609/4/6 614/4/6
f 613/2/6 608/2/6 614/2/6
f 614/4/6 609/4/6 615/4/6
f 610/3/6 611/3/6 616/3/6
f 616/3/6 611/3/6 617/3/6
f 617/2/6 618/2/6 624/2/6
f 619/2/6 620/2/6 624/2/6
f 618/2/6 619/2/6 624/2/6
f 620/4/6 621/4/6 625/4/6
f 624/2/6 620/2/6 625/2/6
f 625/4/6 621/4/6 626/4/6
f 622/4/6 623/4/6 627/4/6
f 627/4/6 623/4/6 628/4/6
f 629/4/6 630/4/6 631/4/6
f 631/4/6 630/4/6 632/4/6
f 633/3/6 634/3/6 635/3/6
f 635/3/6 634/3/6 636/3/6
f 637/3/6 638/3/6 641/3/6
f 641/3/6 638/3/6 642/3/6
f 639/3/6 640/3/6 643/3/6
f 643/3/6 640/3/6 644/3/6
f 644/4/6 645/4/6 646/4/6
f 646/4/6 645/4/6 647/4/6
f 648/4/6 649/4/6 652/4/6
f 649/3/6 650/3/6 653/3/6
f 652/4/6 649/4/6 653/4/6
f 650/4/6 651/4/6 654/4/6
f 653/3/6 650/3/6 654/3/6
f 654/4/6 651/4/6 655/4/6
