# MagicaVoxel @ Ephtracy

# group
o 

# material
mtllib CSR_fish_hook.mtl
usemtl palette

# normals
vn -1 0 0
vn 1 0 0
vn 0 0 1
vn 0 0 -1
vn 0 -1 0
vn 0 1 0

# texcoords
vt 0.306641 0.5
vt 0.841797 0.5
vt 0.958984 0.5
vt 0.974609 0.5
vt 0.994141 0.5

# verts
v -0.2 0.4 0.2
v -0.2 0.4 -0.1
v -0.2 0.5 0.2
v -0.2 0.5 -0.1
v -0.2 0.6 0.2
v -0.2 0.6 -0.1
v -0.2 0.7 0.2
v -0.2 0.7 -0.1
v -0.1 0 0.1
v -0.1 0 -0.1
v -0.1 0.1 0
v -0.1 0.1 -0.1
v -0.1 0.1 -0.2
v -0.1 0.2 -0.1
v -0.1 0.2 -0.2
v -0.1 0.4 0.1
v -0.1 0.4 0
v -0.1 0.7 0.1
v -0.1 0.7 0
v -0.1 25.6 0.1
v -0.1 25.6 0
v 0 0 0.1
v 0 0 -0.1
v 0 0.1 0
v 0 0.1 -0.1
v 0 0.1 -0.2
v 0 0.2 -0.1
v 0 0.2 -0.2
v 0 0.4 0.1
v 0 0.4 0
v 0 0.7 0.1
v 0 0.7 0
v 0 25.6 0.1
v 0 25.6 0
v 0.1 0.4 0.2
v 0.1 0.4 -0.1
v 0.1 0.5 0.2
v 0.1 0.5 -0.1
v 0.1 0.6 0.2
v 0.1 0.6 -0.1
v 0.1 0.7 0.2
v 0.1 0.7 -0.1
v -0.2 0.4 0.2
v -0.2 0.5 0.2
v -0.2 0.6 0.2
v -0.2 0.7 0.2
v 0.1 0.4 0.2
v 0.1 0.5 0.2
v 0.1 0.6 0.2
v 0.1 0.7 0.2
v -0.1 0 0.1
v -0.1 0.4 0.1
v -0.1 0.7 0.1
v -0.1 25.6 0.1
v 0 0 0.1
v 0 0.4 0.1
v 0 0.7 0.1
v 0 25.6 0.1
v -0.1 0.1 -0.1
v -0.1 0.2 -0.1
v 0 0.1 -0.1
v 0 0.2 -0.1
v -0.1 0.1 0
v -0.1 0.4 0
v -0.1 0.7 0
v -0.1 25.6 0
v 0 0.1 0
v 0 0.4 0
v 0 0.7 0
v 0 25.6 0
v -0.2 0.4 -0.1
v -0.2 0.5 -0.1
v -0.2 0.6 -0.1
v -0.2 0.7 -0.1
v -0.1 0 -0.1
v -0.1 0.1 -0.1
v 0 0 -0.1
v 0 0.1 -0.1
v 0.1 0.4 -0.1
v 0.1 0.5 -0.1
v 0.1 0.6 -0.1
v 0.1 0.7 -0.1
v -0.1 0.1 -0.2
v -0.1 0.2 -0.2
v 0 0.1 -0.2
v 0 0.2 -0.2
v -0.1 0 0.1
v 0 0 0.1
v -0.1 0 -0.1
v 0 0 -0.1
v -0.1 0.1 -0.1
v 0 0.1 -0.1
v -0.1 0.1 -0.2
v 0 0.1 -0.2
v -0.2 0.4 0.2
v 0.1 0.4 0.2
v -0.1 0.4 0.1
v 0 0.4 0.1
v -0.1 0.4 0
v 0 0.4 0
v -0.2 0.4 -0.1
v 0.1 0.4 -0.1
v -0.1 0.1 0
v 0 0.1 0
v -0.1 0.1 -0.1
v 0 0.1 -0.1
v -0.1 0.2 -0.1
v 0 0.2 -0.1
v -0.1 0.2 -0.2
v 0 0.2 -0.2
v -0.2 0.7 0.2
v 0.1 0.7 0.2
v -0.1 0.7 0.1
v 0 0.7 0.1
v -0.1 0.7 0
v 0 0.7 0
v -0.2 0.7 -0.1
v 0.1 0.7 -0.1
v -0.1 25.6 0.1
v 0 25.6 0.1
v -0.1 25.6 0
v 0 25.6 0

# faces
f 3/3/1 2/3/1 1/3/1
f 4/3/1 2/3/1 3/3/1
f 5/2/1 4/2/1 3/2/1
f 6/2/1 4/2/1 5/2/1
f 7/3/1 6/3/1 5/3/1
f 8/3/1 6/3/1 7/3/1
f 11/5/1 10/5/1 9/5/1
f 12/5/1 10/5/1 11/5/1
f 14/5/1 13/5/1 12/5/1
f 15/5/1 13/5/1 14/5/1
f 16/5/1 11/5/1 9/5/1
f 17/5/1 11/5/1 16/5/1
f 20/4/1 19/4/1 18/4/1
f 21/4/1 19/4/1 20/4/1
f 22/5/2 23/5/2 24/5/2
f 24/5/2 23/5/2 25/5/2
f 25/5/2 26/5/2 27/5/2
f 27/5/2 26/5/2 28/5/2
f 22/5/2 24/5/2 29/5/2
f 29/5/2 24/5/2 30/5/2
f 31/4/2 32/4/2 33/4/2
f 33/4/2 32/4/2 34/4/2
f 35/3/2 36/3/2 37/3/2
f 37/3/2 36/3/2 38/3/2
f 37/2/2 38/2/2 39/2/2
f 39/2/2 38/2/2 40/2/2
f 39/3/2 40/3/2 41/3/2
f 41/3/2 40/3/2 42/3/2
f 47/3/3 44/3/3 43/3/3
f 48/2/3 45/2/3 44/2/3
f 48/3/3 44/3/3 47/3/3
f 49/3/3 46/3/3 45/3/3
f 49/2/3 45/2/3 48/2/3
f 50/3/3 46/3/3 49/3/3
f 55/5/3 52/5/3 51/5/3
f 56/5/3 52/5/3 55/5/3
f 57/4/3 54/4/3 53/4/3
f 58/4/3 54/4/3 57/4/3
f 61/5/3 60/5/3 59/5/3
f 62/5/3 60/5/3 61/5/3
f 63/5/4 64/5/4 67/5/4
f 67/5/4 64/5/4 68/5/4
f 65/4/4 66/4/4 69/4/4
f 69/4/4 66/4/4 70/4/4
f 75/5/4 76/5/4 77/5/4
f 77/5/4 76/5/4 78/5/4
f 71/3/4 72/3/4 79/3/4
f 72/2/4 73/2/4 80/2/4
f 79/3/4 72/3/4 80/3/4
f 73/3/4 74/3/4 81/3/4
f 80/2/4 73/2/4 81/2/4
f 81/3/4 74/3/4 82/3/4
f 83/5/4 84/5/4 85/5/4
f 85/5/4 84/5/4 86/5/4
f 89/5/5 88/5/5 87/5/5
f 90/5/5 88/5/5 89/5/5
f 93/5/5 92/5/5 91/5/5
f 94/5/5 92/5/5 93/5/5
f 97/3/5 96/3/5 95/3/5
f 98/3/5 96/3/5 97/3/5
f 99/3/5 97/3/5 95/3/5
f 100/3/5 96/3/5 98/3/5
f 101/3/5 99/3/5 95/3/5
f 101/3/5 100/3/5 99/3/5
f 102/3/5 96/3/5 100/3/5
f 102/3/5 100/3/5 101/3/5
f 103/5/6 104/5/6 105/5/6
f 105/5/6 104/5/6 106/5/6
f 107/5/6 108/5/6 109/5/6
f 109/5/6 108/5/6 110/5/6
f 111/3/6 112/3/6 113/3/6
f 113/3/6 112/3/6 114/3/6
f 111/3/6 113/3/6 115/3/6
f 114/3/6 112/3/6 116/3/6
f 111/3/6 115/3/6 117/3/6
f 115/3/6 116/3/6 117/3/6
f 116/3/6 112/3/6 118/3/6
f 117/3/6 116/3/6 118/3/6
f 119/4/6 120/4/6 121/4/6
f 121/4/6 120/4/6 122/4/6
